<svg width="18" height="22" viewBox="0 0 18 22" fill="none" xmlns="http://www.w3.org/2000/svg">
<path d="M17.4417 2.7422C17.4366 2.77767 17.4366 2.8182 17.4366 2.85366C17.4366 2.93979 17.4417 3.02592 17.4417 3.10698C17.4417 8.50268 17.4417 13.8984 17.4417 19.2991C17.4417 19.4157 17.4213 19.5322 17.4467 19.6487C17.4518 19.821 17.4061 19.9831 17.3502 20.1452C17.0249 21.0217 16.3997 21.5587 15.4899 21.7715C15.3577 21.8019 15.2154 21.8171 15.0782 21.8171C15.0324 21.8171 14.9816 21.8171 14.9359 21.8171C11.0374 21.8171 7.13381 21.8171 3.23533 21.8171C2.96594 21.8171 2.70672 21.7918 2.4475 21.7107C1.54785 21.4422 0.866763 20.6671 0.71428 19.745C0.693949 19.6234 0.683777 19.5018 0.683777 19.3802C0.683777 19.3295 0.683777 19.2738 0.683777 19.2231C0.683777 13.868 0.683777 8.51788 0.683777 3.16271C0.683777 2.92966 0.699025 2.69661 0.754935 2.46862C0.973494 1.5668 1.7105 0.847378 2.61523 0.644723C2.80329 0.604192 2.99136 0.578857 3.1845 0.578857C7.12365 0.578857 11.0577 0.578857 14.9969 0.578857C16.1659 0.578857 17.1723 1.38948 17.4264 2.50408C17.4366 2.58515 17.4366 2.66114 17.4417 2.7422Z" fill="black"/>
<path d="M16.1407 11.2029C16.1407 13.8475 16.1407 16.4922 16.1407 19.1419C16.1407 19.2331 16.1407 19.3243 16.1357 19.4104C16.1052 20.0032 15.5867 20.4743 15.0276 20.4743C14.9819 20.4743 14.931 20.4743 14.8853 20.4743C11.0173 20.4743 7.14425 20.4743 3.27626 20.4743C3.14411 20.4743 3.01196 20.4744 2.8798 20.4389C2.31562 20.2869 2.01573 19.7752 2.02082 19.3547C2.02082 19.3192 2.02082 19.2787 2.02082 19.2432C2.02082 13.8779 2.02082 8.51262 2.02082 3.14733C2.02082 3.02067 2.02082 2.89401 2.0564 2.76735C2.18855 2.27591 2.63583 1.92127 3.14411 1.91113C3.18986 1.91113 3.24068 1.91113 3.28643 1.91113C7.14933 1.91113 11.0122 1.91113 14.8802 1.91113C15.0022 1.91113 15.1242 1.91113 15.2462 1.93646C15.7951 2.05806 16.1306 2.5495 16.1407 2.99027C16.1407 3.08147 16.1458 3.17266 16.1458 3.25879C16.1407 5.90851 16.1407 8.55823 16.1407 11.2029Z" fill="#FCC10F"/>
<path d="M9.93509 11.2636C9.93509 12.9254 9.93509 14.572 9.93509 16.2236C9.98592 16.2337 10.0317 16.2489 10.0774 16.2591C10.3417 16.3249 10.5349 16.5377 10.5704 16.8062C10.5908 16.9633 10.5908 17.1254 10.5704 17.2825C10.5247 17.5814 10.2705 17.8144 9.97067 17.8296C9.94525 17.8296 9.91984 17.8296 9.88934 17.8296C9.38106 17.8296 8.87787 17.8296 8.3696 17.8296C8.30352 17.8296 8.24252 17.8296 8.18153 17.8144C7.90198 17.7486 7.69359 17.4953 7.68342 17.2065C7.67834 17.095 7.68342 16.9836 7.68342 16.8721C7.68342 16.6238 7.87148 16.3351 8.18153 16.2591C8.22727 16.2489 8.27302 16.2388 8.31877 16.2287C8.33401 16.1071 8.33909 11.5068 8.32385 11.3193C8.28318 11.3041 8.24252 11.3244 8.20694 11.3396C7.78508 11.4967 7.41403 11.7297 7.08874 12.0337C6.57538 12.5099 6.18401 13.0723 5.92987 13.7309C5.87396 13.8728 5.80279 13.9995 5.69606 14.1059C5.66048 14.1464 5.6249 14.1869 5.58932 14.2274C5.35552 14.4858 5.0048 14.5365 4.70492 14.3592C4.57785 14.2832 4.45587 14.197 4.3288 14.116C4.03908 13.9285 3.74936 13.736 3.45964 13.5485C3.36307 13.4827 3.27158 13.4118 3.21058 13.3054C3.07335 13.0774 3.06827 12.8443 3.19534 12.6062C3.24108 12.515 3.30207 12.4339 3.36307 12.3529C3.57654 12.059 3.95776 11.978 4.27289 12.1604C4.34405 12.2009 4.40504 12.2465 4.4762 12.2921C4.52194 12.3225 4.5626 12.3478 4.60834 12.3731C4.65409 12.3377 4.66426 12.287 4.68459 12.2465C5.35043 10.8887 6.41273 10.0071 7.87657 9.61704C8.00872 9.58157 8.14596 9.56131 8.28319 9.53091C8.31369 9.52584 8.32893 9.51064 8.33401 9.48024C8.33401 9.44478 8.33402 9.40425 8.3391 9.36878C8.3391 8.35044 8.3391 7.32703 8.3391 6.30869C8.3391 6.26309 8.34927 6.21243 8.32893 6.16683C8.27302 6.1567 8.21711 6.1415 8.1612 6.1263C7.90198 6.06044 7.69359 5.79698 7.69359 5.52846C7.69359 5.41194 7.69359 5.29541 7.69359 5.17888C7.69867 4.8445 7.99855 4.56079 8.31877 4.56079C8.86771 4.56079 9.41665 4.56079 9.96559 4.56079C10.2502 4.56079 10.5399 4.79384 10.5806 5.10795C10.6009 5.25994 10.5958 5.417 10.5857 5.569C10.5704 5.79698 10.3976 6.07057 10.0876 6.1415C10.0571 6.14657 10.0266 6.15163 9.991 6.1567C9.9605 6.16176 9.94017 6.17697 9.94017 6.20736C9.94017 6.2479 9.94017 6.29349 9.94017 6.33402C9.94017 7.33717 9.94017 8.3403 9.94017 9.34345C9.94017 9.34851 9.94017 9.35358 9.94017 9.35865C9.94525 9.49544 9.90968 9.50557 10.0927 9.53597C11.0431 9.6981 11.8716 10.1085 12.568 10.7722C12.9949 11.1825 13.3304 11.6537 13.5845 12.1908C13.5896 12.206 13.5998 12.2212 13.6048 12.2364C13.6353 12.2921 13.6455 12.2972 13.7014 12.2617C13.7624 12.2262 13.8183 12.1857 13.8742 12.1502C13.9352 12.1097 14.0013 12.0793 14.0775 12.059C14.352 11.978 14.6417 12.1046 14.7891 12.3022C14.8552 12.3934 14.9111 12.4897 14.9721 12.5809C15.1348 12.8291 15.1093 13.2496 14.779 13.4675C14.6366 13.5637 14.4943 13.6549 14.352 13.7461C14.0623 13.9336 13.7726 14.1261 13.4829 14.3136C13.3609 14.3946 13.2287 14.4453 13.0813 14.4402C12.878 14.4352 12.7103 14.3592 12.5781 14.2021C12.5121 14.1261 12.4561 14.0451 12.3951 13.964C12.324 13.8677 12.2833 13.7613 12.2427 13.6499C12.0495 13.1331 11.7751 12.6619 11.4193 12.2414C11.1092 11.8817 10.7534 11.5879 10.3163 11.3903C10.1892 11.3447 10.0723 11.2991 9.93509 11.2636Z" fill="black"/>
</svg>
